<svg id="Layer_1" data-name="Layer 1" xmlns="http://www.w3.org/2000/svg" viewBox="0 0 400 400"><defs><style>.cls-1{fill:#6e93ac;}.cls-2{fill:none;stroke:#cca633;stroke-miterlimit:10;stroke-width:30px;}</style></defs><path class="cls-1" d="M353.34,223.87V176.13h-27a121,121,0,0,0-17.55-43.89l18.68-18.68L293.67,79.81,275.43,98A121.18,121.18,0,0,0,231.1,79.16V53.89H183.36v25a121.23,121.23,0,0,0-44.93,18.54L120.79,79.81,87,113.56l17.8,17.8a121.16,121.16,0,0,0-18.11,44.77H61.12v47.74H87.28A121.43,121.43,0,0,0,106,267.48l-19,19,33.76,33.75,19.4-19.4a121.08,121.08,0,0,0,43.17,17.42v27.9H231.1V318a121.19,121.19,0,0,0,42.6-17.72l20,20,33.75-33.75-19.81-19.81a121.32,121.32,0,0,0,18.13-42.76Zm-121,.51A36.52,36.52,0,1,1,243,198.55,36.33,36.33,0,0,1,232.33,224.38Z"/><circle class="cls-2" cx="206.51" cy="198.55" r="44.46"/></svg>