<svg id="Layer_1" data-name="Layer 1" xmlns="http://www.w3.org/2000/svg" viewBox="0 0 400 400"><defs><style>.cls-1{fill:#cca633;}.cls-2{fill:#6e93ac;}</style></defs><path class="cls-1" d="M232.28,95.67l-22.15,69.61,29.55.2,25.39.16-12.3,19.18L186,288.93l34.31-93.08-34.88,5.9-25.76,4.36,6.68-28,18.35-86.63a110.39,110.39,0,1,0,47.61,4.18Z"/><path class="cls-2" d="M199,90.56A110.44,110.44,0,1,1,88.56,201,110.45,110.45,0,0,1,199,90.56m0-32.64A143.09,143.09,0,1,0,300.17,99.83,142.11,142.11,0,0,0,199,57.92Z"/></svg>