<svg id="Layer_1" data-name="Layer 1" xmlns="http://www.w3.org/2000/svg" viewBox="0 0 400 400"><defs><style>.cls-1{fill:#cca633;}.cls-2{fill:#6e93ac;}</style></defs><polygon class="cls-1" points="326.38 71.48 73.61 127.51 73.61 71.48 326.38 128.39 326.38 71.48"/><polygon class="cls-2" points="150.13 286.53 144.61 339.08 255.39 339.08 249.87 286.53 150.13 286.53"/><rect class="cls-2" x="162.76" y="118.62" width="74.37" height="21.29"/><path class="cls-2" d="M191.75,52.44h16.38a29,29,0,0,1,29,29V83.6a0,0,0,0,1,0,0H162.76a0,0,0,0,1,0,0V81.44A29,29,0,0,1,191.75,52.44Z"/><polygon class="cls-1" points="239.43 187.04 157.9 212.56 153.71 252.41 243.34 224.35 239.43 187.04"/><polygon class="cls-1" points="151.48 273.67 150.13 286.53 249.87 286.53 245.43 244.26 151.48 273.67"/><polygon class="cls-1" points="243.34 224.35 153.71 252.41 151.48 273.67 245.43 244.26 243.34 224.35"/><polygon class="cls-1" points="237.24 166.23 237.24 139.91 162.76 139.91 162.76 166.23 160.13 191.31 237.34 167.14 237.24 166.23"/><polygon class="cls-2" points="237.34 167.14 160.13 191.31 157.9 212.56 239.43 187.04 237.34 167.14"/><polygon class="cls-1" points="239.43 187.04 157.9 212.56 153.71 252.41 243.34 224.35 239.43 187.04"/><rect class="cls-1" x="198.53" y="191.42" height="93.92"/><polygon class="cls-1" points="207.56 256.11 151.48 273.67 150.13 286.53 249.87 286.53 245.43 244.26 207.56 256.11"/><polygon class="cls-1" points="151.48 273.67 151.48 273.67 207.56 256.11 151.48 273.67"/><polygon class="cls-1" points="245.43 244.26 207.56 256.11 245.43 244.26 245.43 244.26"/><polygon class="cls-2" points="243.34 224.35 153.71 252.41 151.48 273.67 207.56 256.11 245.43 244.26 243.34 224.35"/></svg>