<svg id="Layer_1" data-name="Layer 1" xmlns="http://www.w3.org/2000/svg" viewBox="0 0 400 400"><defs><style>.cls-1{fill:#6e93ac;}.cls-2{fill:#cca633;}</style></defs><path class="cls-1" d="M211.86,225.55,139.2,244.27a3.3,3.3,0,0,1-4-2.37l-1.65-6.41a3.29,3.29,0,0,1,2.37-4l72.61-18.7-13.86-53-.38.09L137.9,174.35a3.29,3.29,0,0,1-4-2.36l-1.65-6.41a3.29,3.29,0,0,1,2.37-4L191,147.05l.33-.09-8.54-32.68a221.87,221.87,0,0,0-46,5.76C112,125.71,89.73,136.13,72.16,153.8c-16.28,16.36-23.94,35.58-18.66,57.95,4.35,18.42,16.85,31.91,32.39,43.25,6.75,4.89,7.67,7,4,14.15C83.27,282,76.12,294.69,68.76,308.27a35.82,35.82,0,0,0,5.07-.62C96,302,116.35,292.63,136,281.72a15.88,15.88,0,0,1,11.39-2,201.06,201.06,0,0,0,77.3-.69l1.08-.24Z"/><rect class="cls-2" x="195.72" y="175.55" width="69.53" height="13.2" rx="3" transform="translate(-38.15 63.24) rotate(-14.44)"/><polygon class="cls-1" points="267.62 127.21 194.16 146.23 197.45 159.02 270.92 140 267.62 127.21"/><path class="cls-1" d="M298.49,189.5,211,212.13l3.23,12.79,87.59-22.8a4,4,0,0,0,2.83-4.89l-1.37-4.95A4,4,0,0,0,298.49,189.5Z"/><rect class="cls-2" x="208.6" y="236.82" width="68.48" height="13.2" rx="3" transform="translate(-53.03 68.26) rotate(-14.44)"/><path class="cls-2" d="M211,212.13,197.45,159l-3.17.81-7.65,2,13.58,53.12L211,212.15Z"/><path class="cls-2" d="M357,266.17,311.71,89.23c-4.51-17.65-11.66-22.09-29.08-17.64L194.16,94.22c-17.64,4.51-21.85,11.6-17.27,29.48L183.36,149l7.63-2,3.19-.82-5.39-21.06a5.66,5.66,0,0,1,3.74-7L295.59,91.85a5.66,5.66,0,0,1,6.62,4.32l39.41,154.12a5.68,5.68,0,0,1-3.73,7L234.83,283.61a5.66,5.66,0,0,1-6.62-4.32l-14-54.37h0l-10.81,2.8,18.65,72.93c4.51,17.65,11.66,22.09,29.31,17.58l88.23-22.57C357.33,291.14,361.53,284.05,357,266.17Zm-61.85,32.61a9.71,9.71,0,1,1,7-11.82A9.75,9.75,0,0,1,295.11,298.78Z"/><polygon class="cls-1" points="270.04 149.53 292.48 127.77 262.41 119.21 270.04 149.53"/><line class="cls-1" x1="281.19" y1="233.6" x2="297.08" y2="229.61"/><polygon class="cls-2" points="274.36 251.64 297.08 229.61 266.64 220.94 274.36 251.64"/></svg>