<svg id="Layer_1" data-name="Layer 1" xmlns="http://www.w3.org/2000/svg" viewBox="0 0 400 400"><defs><style>.cls-1{fill:#6e93ac;}.cls-2{fill:#cca633;}</style></defs><path class="cls-1" d="M283,89.94l-48.64,42.51-31.47-24.79-37.19,37.78L125.61,123,92.71,160.8V308.41h97V293.34h0a55.2,55.2,0,0,1-7.18-2c-.44-.16-.88-.33-1.31-.51a27.28,27.28,0,0,1-6-3.35,30.17,30.17,0,0,1-5.4-5.25,32.51,32.51,0,0,1-6.74-15.64,37.79,37.79,0,0,1-.43-5.72h27.89a19,19,0,0,0,.24,2.13q.09.54.21,1.05a14.84,14.84,0,0,0,1,3,11.36,11.36,0,0,0,1,1.76,9.26,9.26,0,0,0,1.31,1.49,8.36,8.36,0,0,0,5.82,2.16,9.09,9.09,0,0,0,3.66-.77,9.67,9.67,0,0,0,5.64-8.86,10.8,10.8,0,0,0-.8-4.2,10.07,10.07,0,0,0-.72-1.43,12,12,0,0,0-.94-1.31,21.87,21.87,0,0,0-7.26-5.19c-.6-.29-1.21-.58-1.85-.86-2.52-1.13-5.29-2.19-8.13-3.34-.71-.28-1.43-.57-2.14-.87a65.31,65.31,0,0,1-10.49-5.3c-.66-.43-1.31-.88-1.94-1.35a30.87,30.87,0,0,1-2.73-2.26,26.87,26.87,0,0,1-4.6-5.56c-2.62-4.23-4.23-9.6-4.23-16.6,0-1.07,0-2.1.11-3.12a36.09,36.09,0,0,1,.93-5.85c2.5-10.23,9.41-17.76,19.34-22a45.67,45.67,0,0,1,5.71-2V165.13h22v16.48c10.1,2.35,17.11,8.79,20.45,17.36a34.1,34.1,0,0,1,2.23,12.81h0v.82H209.13a17.16,17.16,0,0,0-.66-3.95,12.09,12.09,0,0,0-.68-1.74,8,8,0,0,0-2.86-3.32,7.74,7.74,0,0,0-.8-.44,9.06,9.06,0,0,0-4-.83,8.5,8.5,0,0,0-7.81,4.78,10,10,0,0,0,.39,9.41,12.54,12.54,0,0,0,1,1.42,14.27,14.27,0,0,0,1.89,1.92A17,17,0,0,0,197.1,221a27.5,27.5,0,0,0,2.45,1.55c.57.32,1.16.63,1.75.92,1.79.88,3.66,1.65,5.47,2.34.91.35,1.8.68,2.66,1l.85.31c1.11.4,2.16.78,3.1,1.14,9.42,3.71,17.22,9.8,21.17,18.28.36.77.69,1.56,1,2.37a28.93,28.93,0,0,1,1.35,5.1,32.36,32.36,0,0,1,.47,5.57,32.69,32.69,0,0,1-5.62,18.53,34.68,34.68,0,0,1-3.41,4.25q-.93,1-1.95,1.92a38.18,38.18,0,0,1-4.36,3.42,41.62,41.62,0,0,1-10.27,5v15.73h95.55V105.78Z"/><polygon class="cls-2" points="281.56 60.45 233.81 102.18 201.53 76.75 162.84 116.06 122.12 93.25 92.71 127.03 92.71 167.5 129.1 125.7 168.49 147.76 204.19 111.5 234.86 135.66 284.38 92.37 307.29 107.29 307.29 77.21 281.56 60.45"/></svg>