<svg id="Layer_1" data-name="Layer 1" xmlns="http://www.w3.org/2000/svg" viewBox="0 0 400 400"><defs><style>.cls-1{fill:#6e93ac;}.cls-2{fill:#cca633;}</style></defs><path class="cls-1" d="M157.76,250.07l1.05.7Z"/><path class="cls-1" d="M129.49,197.32A63.36,63.36,0,0,0,146,240,63.36,63.36,0,0,1,129.49,197.32Z"/><path class="cls-1" d="M156.48,249.2l1.05.73Z"/><path class="cls-1" d="M151.56,245.36l1.08.91Z"/><path class="cls-1" d="M148.2,242.25l1,1Z"/><path class="cls-1" d="M152.79,246.39l1,.84Z"/><path class="cls-1" d="M149.29,243.3c.34.33.7.66,1.05,1C150,244,149.63,243.63,149.29,243.3Z"/><path class="cls-1" d="M159.05,250.91l1.06.67Z"/><path class="cls-1" d="M150.42,244.35l1.06.94Z"/><path class="cls-1" d="M146,240c.34.37.68.74,1,1.1C146.72,240.73,146.38,240.36,146,240Z"/><path class="cls-1" d="M155.22,248.29l1.06.77Z"/><path class="cls-1" d="M154,247.33l1.08.83Z"/><path class="cls-1" d="M165.9,254.69l1,.47Z"/><path class="cls-1" d="M182.42,259.88l1,.15Z"/><path class="cls-1" d="M184.14,260.14l.81.11Z"/><path class="cls-1" d="M179.32,259.27l.92.2Z"/><path class="cls-1" d="M180.86,259.59c.31.06.62.13.94.18C181.48,259.72,181.17,259.65,180.86,259.59Z"/><path class="cls-1" d="M185.86,260.36l.68.08Z"/><path class="cls-1" d="M177.77,258.91l.93.23Z"/><path class="cls-1" d="M148.13,242.18l-1-1.07Z"/><path class="cls-1" d="M189.3,260.65l.47,0Z"/><path class="cls-1" d="M160.39,251.74c.34.21.69.41,1,.61C161.08,252.15,160.73,252,160.39,251.74Z"/><path class="cls-1" d="M187.44,260.52l.71.06Z"/><path class="cls-1" d="M190.9,260.72l.5,0Z"/><path class="cls-1" d="M164.48,254l1,.5Z"/><path class="cls-1" d="M167.31,255.33l1,.45Z"/><path class="cls-1" d="M176.26,258.52l.91.25Z"/><path class="cls-1" d="M168.75,256l1,.41Z"/><path class="cls-1" d="M161.79,252.56c.32.18.65.37,1,.54C162.44,252.93,162.11,252.74,161.79,252.56Z"/><path class="cls-1" d="M163.09,253.28l1,.54Z"/><path class="cls-1" d="M173.15,257.59l1,.32Z"/><path class="cls-1" d="M174.72,258.08l.93.28Z"/><path class="cls-1" d="M170.19,256.53l1,.38Z"/><path class="cls-1" d="M171.7,257.09l1,.34Z"/><path class="cls-1" d="M242.89,157.8l-.95-1.17Z"/><path class="cls-1" d="M230.74,146.06l-1-.74Z"/><path class="cls-1" d="M237.76,152.07l-1-1Z"/><path class="cls-1" d="M236.65,151l-1-.93Z"/><path class="cls-1" d="M232,147l-1-.77Z"/><path class="cls-1" d="M241.92,156.61c-.32-.38-.64-.76-1-1.13C241.28,155.85,241.6,156.23,241.92,156.61Z"/><path class="cls-1" d="M233.18,148l-1-.81Z"/><path class="cls-1" d="M240.92,155.44c-.32-.37-.64-.73-1-1.09C240.28,154.71,240.6,155.07,240.92,155.44Z"/><path class="cls-1" d="M234.36,149l-1-.86Z"/><path class="cls-1" d="M239.9,154.3l-1-1.06Z"/><path class="cls-1" d="M235.52,150l-1-.89Z"/><path class="cls-1" d="M229.48,145.16c-.33-.24-.67-.47-1-.7C228.81,144.69,229.15,144.92,229.48,145.16Z"/><path class="cls-1" d="M200.25,134.08l-.73-.08Z"/><path class="cls-1" d="M209.74,135.89l-.86-.23Z"/><path class="cls-1" d="M201.88,134.29l-.76-.11Z"/><path class="cls-1" d="M203.49,134.53l-.79-.13Z"/><path class="cls-1" d="M206.67,135.14l-.85-.18Z"/><path class="cls-1" d="M208.22,135.5l-.86-.21Z"/><path class="cls-1" d="M205.09,134.82l-.83-.16Z"/><path class="cls-1" d="M237.85,152.16l1,1Z"/><path class="cls-1" d="M197,133.8l-.7-.05Z"/><path class="cls-1" d="M198.66,133.92c-.25,0-.49,0-.74-.06C198.17,133.87,198.41,133.9,198.66,133.92Z"/><path class="cls-1" d="M195.23,133.71l-.55,0Z"/><path class="cls-1" d="M225.58,142.63l-1-.59Z"/><path class="cls-1" d="M220.08,139.7l-1-.44Z"/><path class="cls-1" d="M222.86,141.09l-1-.5Z"/><path class="cls-1" d="M221.48,140.38l-1-.48Z"/><path class="cls-1" d="M224.23,141.84l-1-.54Z"/><path class="cls-1" d="M228.2,144.28l-1-.66Z"/><path class="cls-1" d="M226.9,143.44c-.33-.21-.66-.42-1-.62C226.24,143,226.57,143.23,226.9,143.44Z"/><path class="cls-1" d="M211.27,136.33l-.87-.26Z"/><path class="cls-1" d="M218.65,139.05l-.94-.41Z"/><path class="cls-1" d="M214.28,137.31l-.91-.32Z"/><path class="cls-1" d="M212.79,136.8l-.9-.29Z"/><path class="cls-1" d="M217.22,138.44l-.94-.38Z"/><path class="cls-1" d="M215.75,137.85l-.91-.34Z"/><path class="cls-2" d="M317.23,196.81A124.19,124.19,0,0,0,193,73v60.65a63.54,63.54,0,0,1,63.54,63.14H241l48.24,48.24,48.25-48.24Z"/><path class="cls-2" d="M129.49,197.31h17.2L98.45,149.06,50.2,197.31H68.84A124.2,124.2,0,0,0,193,321.41V260.76A63.55,63.55,0,0,1,129.49,197.31Z"/><path class="cls-1" d="M289.25,245.05,241,196.81h15.57a63.21,63.21,0,0,0-13.69-39h0l-.95-1.17,0,0c-.32-.38-.64-.76-1-1.13l0,0c-.32-.37-.64-.73-1-1.09l0,0-1-1.06-.07-.07-1-1-.09-.09-1-1-.11-.1-1-.93-.13-.11-1-.89-.15-.12-1-.86-.17-.14-1-.81L232,147l-1-.77-.22-.16-1-.74-.24-.16c-.33-.24-.67-.47-1-.7l-.27-.18-1-.66-.3-.18c-.33-.21-.66-.42-1-.62a3.37,3.37,0,0,0-.32-.19l-1-.59-.36-.2-1-.54-.39-.21-1-.5-.42-.21-1-.48-.44-.2-1-.44-.48-.21-.94-.41-.49-.2-.94-.38-.53-.21-.91-.34-.56-.2-.91-.32-.58-.19-.9-.29-.62-.18-.87-.26-.66-.18-.86-.23-.66-.16-.86-.21-.69-.15-.85-.18-.73-.14-.83-.16-.77-.13-.79-.13-.82-.11-.76-.11-.87-.1-.73-.08-.86-.08c-.25,0-.49,0-.74-.06l-.92-.06-.7-.05-1.07,0-.55,0-1.64,0V73A124.23,124.23,0,0,0,70.48,177l28-28,48.24,48.25h-17.2A63.36,63.36,0,0,0,146,240h0c.34.37.68.74,1,1.1v0l1,1.07a.23.23,0,0,1,.07.07l1,1,.07.06c.34.33.7.66,1.05,1l.08.07,1.06.94.08.07,1.08.91.15.12,1,.84.13.1,1.08.83.18.13,1.06.77.2.14,1.05.73.23.14,1.05.7.24.14,1.06.67.28.16c.34.21.69.41,1,.61l.36.21c.32.18.65.37,1,.54l.32.18,1,.54.35.18,1,.5c.12.07.26.13.39.19l1,.47.41.17,1,.45.43.17,1,.41.44.17,1,.38.5.18,1,.34.48.16,1,.32.57.17.93.28.61.16.91.25.6.14.93.23.62.13.92.2c.2,0,.41.08.62.12s.62.13.94.18l.62.11,1,.15.77.11.81.11.91.11.68.08.9.08.71.06,1.15.07.47,0,1.13,0,.5,0c.54,0,1.09,0,1.64,0v60.65A124.22,124.22,0,0,0,315.33,219ZM221.7,239H164.38V218.58a26,26,0,0,1,11.18-21.36c.31-.22.63-.43.95-.63l.28-.17c.23-.15.47-.29.7-.42l.36-.2.65-.35.41-.2.64-.31.42-.19.65-.27.43-.17.67-.25.43-.15.75-.23.36-.11,1.14-.3a23.23,23.23,0,0,1-14.6-21.57q0-.6,0-1.2a22.61,22.61,0,0,1,.24-2.34c.06-.39.13-.77.2-1.15a23.24,23.24,0,1,1,31.41,26.26,25.89,25.89,0,0,1,8.84,3.95h0c.38.26.76.54,1.12.83l.26.2c.32.25.63.51.93.77l.15.13c.34.31.68.63,1,.95l.21.21.8.84c.06.07.13.14.19.22.31.34.6.69.89,1l.14.19c.24.31.47.62.7.94l.2.28c.26.38.51.76.75,1.15l0,.08c.22.37.44.74.65,1.13l.17.31c.19.37.38.75.56,1.13a.75.75,0,0,0,.06.13c.19.42.37.84.54,1.28l.12.33c.14.36.27.72.39,1.09l.09.27c.14.44.27.89.38,1.34,0,.1,0,.21.08.31.09.37.17.75.25,1.13,0,.11.05.23.07.34.08.47.16.94.22,1.41,0,.07,0,.15,0,.23q.08.62.12,1.23c0,.13,0,.26,0,.39,0,.49,0,1,0,1.47Z"/></svg>