<svg id="Layer_1" data-name="Layer 1" xmlns="http://www.w3.org/2000/svg" viewBox="0 0 400 400"><defs><style>.cls-1{fill:#6e93ac;}.cls-2{fill:#cca633;}</style></defs><rect class="cls-1" x="78.62" y="271.12" width="14.23" height="14.23"/><rect class="cls-1" x="214.39" y="305.59" width="14.23" height="14.23"/><path class="cls-2" d="M133.35,275.3H98.09a5.88,5.88,0,1,0,0,11.75h41.14a5.88,5.88,0,0,0,5.88-5.87V239H133.35Z"/><path class="cls-2" d="M168.62,239v77.4a5.88,5.88,0,0,0,5.87,5.88h35.27a5.88,5.88,0,0,0,0-11.76H180.37V239Z"/><path class="cls-2" d="M227.39,263.54H215.63a5.88,5.88,0,0,0,0,11.76h17.63a5.88,5.88,0,0,0,5.88-5.88V239H227.39Z"/><path class="cls-2" d="M274.4,298.81H262.65V239H250.9v65.64a5.87,5.87,0,0,0,5.87,5.88H274.4a5.88,5.88,0,1,0,0-11.75Z"/><circle class="cls-2" cx="292.04" cy="304.69" r="17.63"/><circle class="cls-2" cx="292.04" cy="304.69" r="5.88"/><circle class="cls-2" cx="221.51" cy="316.44" r="17.63"/><circle class="cls-2" cx="221.51" cy="316.44" r="5.88"/><circle class="cls-2" cx="86.33" cy="281.18" r="17.63"/><circle class="cls-2" cx="86.33" cy="281.18" r="5.88"/><circle class="cls-2" cx="203.88" cy="269.42" r="17.63"/><path class="cls-2" d="M203.88,263.54a5.88,5.88,0,1,0,5.88,5.88A5.89,5.89,0,0,0,203.88,263.54Z"/><path class="cls-1" d="M281.94,131.4c.1-1.47.16-2.94.16-4.4A65.51,65.51,0,0,0,160.32,93.19a45.13,45.13,0,0,0-13.4-2,45.78,45.78,0,0,0-45.52,42.18A56,56,0,0,0,61.48,186.9c0,26.13,16.62,49.81,39.53,56.3a5.84,5.84,0,0,0,1.61.22h0l178.67-.13.46,0a53.24,53.24,0,0,0,35.86-18.18,57.79,57.79,0,0,0,14.21-38.19A55.8,55.8,0,0,0,281.94,131.4Zm-139,76.13a9,9,0,0,1-9,9h-1a9,9,0,0,1-9-9V184.17a9,9,0,0,1,9-9h1a9,9,0,0,1,9,9Zm31.61,0a9,9,0,0,1-9,9h-1a9,9,0,0,1-9-9V194.61a9,9,0,0,1,9-9h1a9,9,0,0,1,9,9Zm31.61,0a9,9,0,0,1-9,9h-1a9,9,0,0,1-9-9v-31.3a9,9,0,0,1,9-9h1a9,9,0,0,1,9,9Zm31.61,0a9,9,0,0,1-9,9h-1a9,9,0,0,1-9-9V136.79a9,9,0,0,1,9-9h1a9,9,0,0,1,9,9Zm31.61,0a9,9,0,0,1-9,9h-1a9,9,0,0,1-9-9V163.67a9,9,0,0,1,9-9h1a9,9,0,0,1,9,9Z"/></svg>