<svg id="Layer_1" data-name="Layer 1" xmlns="http://www.w3.org/2000/svg" viewBox="0 0 400 400"><defs><style>.cls-1{fill:#6e93ac;stroke:#cca633;stroke-miterlimit:10;stroke-width:0.25px;}.cls-2{fill:#cca633;}</style></defs><path class="cls-1" d="M247.05,114.91c-20.85,8.21-39.58,25.4-40.82,45.75a1.49,1.49,0,0,1,0,.21h0a1.49,1.49,0,0,0,0-.21c-1.24-20.35-20-37.54-40.81-45.75V163.4H86.78c0,.18,0,.35,0,.53,0,16.25,9.56,32.27,19.9,47.15,4.6,6.63,9.37,13.14,14.18,19.35,3.89,5,7.84,9.88,11.83,14.6h32.74v34.24a301.27,301.27,0,0,0,39.17,30.61l.71.47.93.63.93-.62.71-.48a301.16,301.16,0,0,0,39.18-30.61V245h32.73c4-4.72,7.94-9.57,11.83-14.6,4.81-6.21,9.58-12.72,14.18-19.35,10.34-14.88,19.9-30.9,19.9-47.15,0-.18,0-.35,0-.53H247.05Z"/><path class="cls-2" d="M272.37,109.72c-28.17,0-64.4,22.36-66.14,50.94a1.49,1.49,0,0,1,0,.21h0a1.49,1.49,0,0,0,0-.21c-1.74-28.58-38-50.94-66.14-50.94-29.4,0-53.32,24.32-53.32,54.21,0,16.25,9.56,32.27,19.9,47.15,4.6,6.63,9.37,13.14,14.18,19.35,25.83,33.37,54,60.09,83.74,79.45l.71.47.93.63.93-.62.71-.48c29.74-19.36,57.91-46.08,83.74-79.45,4.81-6.21,9.58-12.72,14.18-19.35,10.34-14.88,19.9-30.9,19.9-47.15C325.69,134,301.77,109.72,272.37,109.72Z"/><path class="cls-1" d="M206.23,136.78c4.56-20.22,19.2-32.43,40.82-37.43V59H165.42V99.69C185.9,105.08,199.13,117.7,206.23,136.78Z"/><path class="cls-1" d="M110.57,238.39Q103,228.64,96,218.5c-11.12-16-22.22-34.43-22.22-54.57,0-.18,0-.35,0-.53H61V245h54.79Q113.17,241.73,110.57,238.39Z"/><path class="cls-1" d="M215,320.77c-.45.3-6.72,4.61-8.47,5.36v0l-.07.08h0a1.67,1.67,0,0,1-.18-.05,1.09,1.09,0,0,1-.17.05h0l-.07-.08v0c-1.75-.75-8-5.06-8.47-5.36a304.59,304.59,0,0,1-32.08-24.14v52.79h81.63V296.63A305.75,305.75,0,0,1,215,320.77Z"/><path class="cls-1" d="M338.68,163.4c0,.18,0,.35,0,.53,0,20.14-11.09,38.55-22.22,54.57q-7,10.13-14.58,19.89c-1.72,2.23-3.48,4.44-5.25,6.64h54.8V163.4Z"/></svg>