<svg id="Layer_1" data-name="Layer 1" xmlns="http://www.w3.org/2000/svg" viewBox="0 0 400 400"><defs><style>.cls-1{fill:#6e93ac;}.cls-2{fill:#cca633;}</style></defs><path class="cls-1" d="M181.31,342.28c-4.88-21.19-7.94-34.22-9.26-39.82l-3,.15c1.1,6.11,3.51,19.95,8.14,40.39a2.56,2.56,0,0,0,2.65,2.21l.22,0A2.34,2.34,0,0,0,181.31,342.28Z"/><path class="cls-1" d="M219,121.3c-.49-1.29-1-2.58-1.52-3.89-.95-2.56-2.05-5.2-3.14-7.88l-3.46-8.19L209,97.11c-.69-1.45-1.25-2.85-2-4.32-2.7-5.87-5.55-11.88-9-18.7l-.5-.24h0c-2,4.82-3.79,9.73-5.55,14.64s-3.32,9.88-4.87,14.85c-3,10-5.8,20-8.13,30.1-.56,2.54-1.24,5-1.76,7.59l-1.61,7.61c-.57,2.53-1,5.1-1.46,7.65-.36,2-.74,4.09-1.1,6.14A170.24,170.24,0,0,1,219,121.3Z"/><path class="cls-1" d="M171.06,285.81l.06.74c1,1.26,2.13,2.53,3.27,3.81C174.73,287.69,174.92,282.75,171.06,285.81Z"/><path class="cls-1" d="M232.73,167.5q-.71-3.34-1.57-6.77t-1.64-6.83c-.61-2.3-1.25-4.63-2-7s-1.34-4.69-2.15-7.1l-1.14-3.61L223,132.52c-.82-2.45-1.72-4.92-2.59-7.42-.48-1.26-.95-2.53-1.43-3.8a170.24,170.24,0,0,0-45.89,41.14c-.09.5-.19,1-.27,1.51-1.69,10.23-3.19,20.49-4.14,30.81l-.77,7.72c-.23,2.57-.37,5.12-.53,7.68-.19,5.12-.33,10.26-.21,15.41.19,10.3.85,20.63,1.61,31,.7,9.45,1.58,19.4,2.3,29.25,3.86-3.06,3.67,1.88,3.33,4.55l.1.12,2.51,2.75c.86.92,1.82,1.87,2.73,2.8l1.1,1.09.84-.52,3.08-2.07c.79-.53,1.54-1,2.3-1.58.45-2.13.92-4.24,1.39-6.21,2.38-10.18,4.93-20.33,7.86-30.42a305.58,305.58,0,0,1,10.24-29.9c2-4.91,4.14-9.76,6.45-14.55,1.2-2.36,2.4-4.76,3.66-7.08l3.87-6.89c4.29-7.61,8.93-15,13.71-22.33C233.76,172.89,233.25,170.21,232.73,167.5Z"/><path class="cls-1" d="M169.89,303.16l1.11-.11.76-.44-1.26.13-1.2.22Z"/><path class="cls-1" d="M177,293.23l-2.51-2.75-.1-.12c-1.14-1.28-2.22-2.55-3.27-3.81.39,5.36.72,10.69.95,15.89.91-.52,1.8-1,2.66-1.54,1.26-.74,2.47-1.47,3.61-2.2l2.49-1.58-1.1-1.09C178.82,295.1,177.86,294.15,177,293.23Z"/><path class="cls-1" d="M197,73.61a52.48,52.48,0,0,0-5.4,1.69l-2.58,1-2.45,1c-3.38,1.4-6.31,3-9.39,4.62s-5.82,3.4-8.62,5.21l-4.08,2.79c-1.33.95-2.56,1.92-3.86,2.89-2.5,2-5,4-7.37,6.06s-4.53,4.21-6.78,6.36a146,146,0,0,0-12,13.56,168.82,168.82,0,0,0-30.35,61q-2,8-3.4,16.19c-.46,2.72-1,5.45-1.24,8.16s-.53,5.45-.72,8.18c-.35,5.46-.81,10.93-.18,16.4a75.33,75.33,0,0,0,3.86,16.33,78.06,78.06,0,0,0,3.43,8.07,84.84,84.84,0,0,0,4.8,7.92,96.8,96.8,0,0,0,13.08,15.32,90.18,90.18,0,0,0,8.7,7.28,111.6,111.6,0,0,0,10.39,6.95A134.25,134.25,0,0,0,155,297.15l3.37,1.56c1.16.52,2.41,1,3.61,1.53l.17.07c2.19.91,4.6,1.79,7.16,2.65l1.2-.22-1.41.14c-.75-4.06-1.66-8.67-2.4-12.87-.1-.58-.19-1.15-.29-1.7-.56-3.33-1.09-6.66-1.61-10-2.22-3.06-4.11-6.05-5.87-9a89.83,89.83,0,0,1-5.21-10.08A97.16,97.16,0,0,1,147.57,240a86.1,86.1,0,0,1-1.36-9.15,77.86,77.86,0,0,1,0-8.77,75.52,75.52,0,0,1,2.75-16.55c1.53-5.29,4.08-10.16,6.51-15.05,1.23-2.45,2.53-4.86,3.83-7.27s2.82-4.72,4.29-7c.29-.46.61-.9.9-1.35q1-6,2.18-12c2.21-10.29,4.6-20.53,7.59-30.61s6.25-20.07,10.13-29.82A235.43,235.43,0,0,1,197.5,73.83Z"/><path class="cls-1" d="M159.78,225.67c-.09-5.29,0-10.6.31-15.9.2-2.65.38-5.32.65-8l.89-7.85c.75-6.4,1.73-12.77,2.82-19.12-.29.45-.61.89-.9,1.35-1.47,2.32-3,4.64-4.29,7s-2.6,4.82-3.83,7.27c-2.43,4.89-5,9.76-6.51,15.05a75.52,75.52,0,0,0-2.75,16.55,77.86,77.86,0,0,0,0,8.77,86.1,86.1,0,0,0,1.36,9.15,97.16,97.16,0,0,0,6.14,19.19,89.83,89.83,0,0,0,5.21,10.08c1.76,3,3.65,6,5.87,9-1.09-7-2.09-14-2.89-21.1A303.87,303.87,0,0,1,159.78,225.67Z"/><path class="cls-2" d="M185.09,301.07c-1.33,5.95-4.19,19.39-7.87,40.27a2.57,2.57,0,0,0,1.59,3.07.83.83,0,0,0,.22,0,2.33,2.33,0,0,0,2.28-2.16c3.72-21.6,5.94-34.83,6.88-40.43Z"/><path class="cls-2" d="M185.09,301.07c.52-2.32.8-3.5.81-3.54a3,3,0,0,1,.35-.84c.71-3.36,1.45-6.83,2.19-9.95,2.38-10.18,4.93-20.33,7.86-30.42a305.58,305.58,0,0,1,10.24-29.9c2-4.91,4.14-9.76,6.45-14.55,1.2-2.36,2.4-4.76,3.66-7.08l3.87-6.89c5.17-9.17,10.84-18.05,16.66-26.81,6-8.63,12.18-17.16,18.83-25.3s13.52-16.09,20.88-23.58A234.88,234.88,0,0,1,300.05,101l-.35-.4a53.34,53.34,0,0,0-5.64-.53l-2.75-.1-2.67,0c-3.65,0-7,.32-10.44.62s-6.69.89-10,1.48l-4.84,1c-1.6.36-3.11.78-4.68,1.17-3.07.85-6.16,1.73-9.14,2.74s-5.81,2.13-8.71,3.25a145.05,145.05,0,0,0-16.35,7.85A168.88,168.88,0,0,0,173,162.58q-4.94,6.64-9.4,13.62c-1.47,2.32-3,4.64-4.29,7s-2.6,4.82-3.83,7.27c-2.43,4.89-5,9.76-6.51,15.05a75.52,75.52,0,0,0-2.75,16.55,77.86,77.86,0,0,0,0,8.77,86.1,86.1,0,0,0,1.36,9.15,97.16,97.16,0,0,0,6.14,19.19,89.83,89.83,0,0,0,5.21,10.08,112,112,0,0,0,6.89,10.43,134.72,134.72,0,0,0,8.68,10.75l2.51,2.75c.86.92,1.82,1.87,2.73,2.8C181.34,297.67,183.15,299.35,185.09,301.07Z"/><path class="cls-2" d="M301.71,131.5l-.09-4.62c-.08-1.61-.05-3.11-.14-4.74-.22-6.46-.53-13.11-1-20.72l-.37-.42,0,0c-3.73,3.67-7.26,7.51-10.78,11.35s-6.89,7.83-10.23,11.82c-6.67,8-13.08,16.18-19.15,24.61-1.49,2.13-3.09,4.17-4.55,6.32l-4.43,6.4c-1.51,2.11-2.87,4.32-4.3,6.49s-2.85,4.33-4.23,6.52c-5.51,8.78-10.86,17.66-15.72,26.81L223,208.17c-1.2,2.28-2.31,4.57-3.45,6.87-2.16,4.65-4.28,9.34-6.16,14.13-3.81,9.58-7.19,19.36-10.5,29.21-4.71,14.1-9.49,29.51-14.68,43.58,2.56-.3,5-.63,7.23-1l3.87-.65,3.65-.71c4.78-1,9.18-2,13.24-3.09a181.52,181.52,0,0,0,21.47-7.07,108.62,108.62,0,0,0,16.44-8.07,73.91,73.91,0,0,0,6.5-4.47,64,64,0,0,0,5.76-4.64A50.55,50.55,0,0,0,275,262l1.69-2.73c.54-.92,1.05-1.85,1.53-2.8.92-1.91,1.82-3.83,2.65-5.78s1.64-3.92,2.42-5.9c.37-1,.77-2,1.19-3s.78-2,1.17-3q2.29-5.94,4.12-12.19A223.6,223.6,0,0,0,296.32,201c.43-2.25.82-4.53,1.17-6.86s.78-4.58,1.13-6.93.63-4.75.88-7.21.58-4.84.77-7.38l.34-3.77.24-3.88c.2-2.58.32-5.21.49-7.85s.21-5.43.25-8.24.12-5.58.15-8.48Z"/></svg>