<svg id="Layer_1" data-name="Layer 1" xmlns="http://www.w3.org/2000/svg" viewBox="0 0 400 400"><defs><style>.cls-1{fill:#6e93ac;}.cls-2{fill:#cca633;}</style></defs><rect class="cls-1" x="170.41" y="213.81" width="55.85" height="35.5"/><path class="cls-1" d="M71.24,152.47V305.75c0,21.15,9,30.18,20.18,30.18H305.25a20.18,20.18,0,0,0,20.18-20.18V152.47ZM289.15,289.2H107.52v-3H289.15Zm0-75.39H229.26v35.51h59.89v3H107.52v-3h59.89V213.81H107.52v-3H289.15Z"/><rect class="cls-1" x="63.19" y="90.2" width="254.19" height="30.51" transform="translate(-20.41 51.27) rotate(-14.57)"/><polygon class="cls-2" points="165.66 96.26 136.64 103.81 136.32 104.39 174.2 125.57 174.2 125.57 204.15 117.78 204.15 117.78 165.66 96.26"/><polygon class="cls-2" points="278.51 66.93 249.5 74.47 249.17 75.05 287.05 96.23 287.05 96.23 317 88.45 317.01 88.44 278.51 66.93"/><polygon class="cls-2" points="223.67 81.18 194.65 88.73 194.33 89.31 232.21 110.49 232.21 110.49 262.16 102.7 262.16 102.7 223.67 81.18"/><polygon class="cls-2" points="208.85 152.39 177.9 152.39 146.91 182.08 177.86 182.08 208.85 152.39"/><polygon class="cls-2" points="325.45 152.39 294.51 152.39 263.52 182.08 294.46 182.08 325.45 152.39"/><polygon class="cls-2" points="268.79 152.39 237.84 152.39 206.85 182.08 237.8 182.08 268.79 152.39"/><polygon class="cls-2" points="71.16 125.58 87.86 121.68 111.02 153.01 111.02 181.89 71.16 181.89 71.16 125.58"/><circle class="cls-1" cx="76.69" cy="129.58" r="2.02"/><circle class="cls-1" cx="107.88" cy="177.94" r="2.02"/><circle class="cls-1" cx="75.46" cy="178.35" r="2.02"/></svg>