<svg width="173" height="173" viewBox="0 0 173 173" fill="none" xmlns="http://www.w3.org/2000/svg">
<path d="M86.6061 128.212C109.585 128.212 128.212 109.585 128.212 86.6061C128.212 63.6277 109.585 45 86.6061 45C63.6277 45 45 63.6277 45 86.6061C45 109.585 63.6277 128.212 86.6061 128.212Z" fill="#E4C361"/>
<path d="M147.765 86.8823C147.765 83.0016 146.683 79.2482 144.711 76.0037C145.411 72.2502 145.029 68.3695 143.629 64.7433C142.039 60.7354 139.303 57.3 135.741 54.9461C135.041 50.7474 133.005 46.803 129.952 43.813C127.216 41.0774 123.844 39.1689 120.091 38.2782C117.928 35.161 114.938 32.6163 111.375 31.0894C107.431 29.4354 103.041 28.99 98.8425 29.8171C95.3435 27.336 91.1447 26 86.8823 26C83.0016 26 79.2482 27.0815 76.0037 29.0537C72.2502 28.3539 68.3695 28.7356 64.7433 30.1352C60.7354 31.7256 57.3636 34.5248 55.0098 38.0874C50.811 38.7872 46.8667 40.823 43.813 43.813C41.0774 46.5486 39.1689 49.9203 38.2782 53.6738C35.161 55.8368 32.6163 58.8268 31.0894 62.3894C29.4354 66.3337 28.99 70.7234 29.8171 74.9221C27.336 78.4211 26 82.6199 26 86.8823C26 90.763 27.0815 94.5165 29.0537 97.761C28.3539 101.514 28.7356 105.395 30.1352 109.021C31.7256 113.029 34.4612 116.465 38.0238 118.818C38.7236 123.017 40.7593 126.962 43.813 129.952C46.5486 132.687 49.9203 134.596 53.6738 135.486C55.8368 138.604 58.8268 141.148 62.3894 142.675C66.3337 144.393 70.7234 144.838 74.8585 144.011C78.3575 146.492 82.5563 147.828 86.8187 147.828C90.6994 147.828 94.4528 146.747 97.6973 144.775C101.451 145.474 105.331 145.093 108.958 143.693C112.966 142.103 116.401 139.367 118.755 135.804C122.954 135.105 126.898 133.069 129.888 130.015C132.624 127.28 134.532 123.908 135.423 120.154C138.54 117.991 141.085 115.001 142.612 111.439C144.329 107.495 144.775 103.105 143.948 98.9697C146.365 95.3435 147.765 91.1447 147.765 86.8823ZM86.8823 135.868C59.8447 135.868 37.8965 113.92 37.8965 86.8823C37.8965 59.8447 59.8447 37.8965 86.8823 37.8965C113.92 37.8965 135.868 59.8447 135.868 86.8823C135.868 113.92 113.92 135.868 86.8823 135.868Z" fill="#6e93ac"/>
</svg>
