<svg id="Layer_1" data-name="Layer 1" xmlns="http://www.w3.org/2000/svg" viewBox="0 0 400 400"><defs><style>.cls-1{fill:#6e93ac;}.cls-2{fill:#cca633;}</style></defs><rect class="cls-1" x="48.43" y="218.57" width="81.63" height="81.63"/><polygon class="cls-2" points="162.68 281.82 130.07 300.21 130.07 218.57 162.68 200.19 162.68 281.82"/><polygon class="cls-2" points="81.05 200.19 48.43 218.57 130.07 218.57 162.68 200.19 81.05 200.19"/><rect class="cls-1" x="177.13" y="218.57" width="81.63" height="81.63"/><polygon class="cls-2" points="291.38 281.82 258.77 300.21 258.77 218.57 291.38 200.19 291.38 281.82"/><polygon class="cls-2" points="209.74 200.19 177.13 218.57 258.77 218.57 291.38 200.19 209.74 200.19"/><rect class="cls-1" x="116.39" y="107.03" width="81.63" height="81.63"/><polygon class="cls-2" points="230.63 170.28 198.02 188.66 198.02 107.03 230.63 88.65 230.63 170.28"/><polygon class="cls-2" points="149 88.65 116.39 107.03 198.02 107.03 230.63 88.65 149 88.65"/><rect class="cls-1" x="242.38" y="128.85" width="52.19" height="8.57" rx="4"/><rect class="cls-1" x="242.38" y="153.99" width="52.19" height="8.57" rx="4"/><rect class="cls-1" x="242.38" y="103.7" width="52.19" height="8.57" rx="4"/><rect class="cls-1" x="308.34" y="238.15" width="52.19" height="8.57" rx="4"/><rect class="cls-1" x="308.34" y="263.3" width="52.19" height="8.57" rx="4"/><rect class="cls-1" x="308.34" y="213" width="52.19" height="8.57" rx="4"/></svg>