<?xml version="1.0" encoding="UTF-8" standalone="no"?>
<!DOCTYPE svg PUBLIC "-//W3C//DTD SVG 1.1//EN" "http://www.w3.org/Graphics/SVG/1.1/DTD/svg11.dtd">
<svg width="100%" height="100%" viewBox="0 0 386 380" version="1.1" xmlns="http://www.w3.org/2000/svg" xmlns:xlink="http://www.w3.org/1999/xlink" xml:space="preserve" style="fill-rule:evenodd;clip-rule:evenodd;stroke-linejoin:round;stroke-miterlimit:2;">
    <g transform="matrix(4.73818,0,0,-4.73818,-43.9713,421.733)">
        <path d="M56.404,87.13L56.404,87.13C63.873,91.88 73.732,87.132 74.675,78.331L74.675,78.331C75.168,73.726 78.281,69.823 82.661,68.317L82.661,68.317C91.031,65.44 93.466,54.771 87.173,48.547L87.173,48.547C83.88,45.29 82.769,40.422 84.323,36.059L84.323,36.059C87.292,27.721 80.469,19.166 71.68,20.205L71.68,20.205C67.08,20.749 62.582,18.583 60.139,14.648L60.139,14.648C55.471,7.127 44.529,7.127 39.861,14.648L39.861,14.648C37.418,18.583 32.92,20.749 28.32,20.205L28.32,20.205C19.531,19.166 12.708,27.721 15.677,36.059L15.677,36.059C17.231,40.422 16.12,45.29 12.827,48.547L12.827,48.547C6.534,54.771 8.969,65.44 17.339,68.317L17.339,68.317C21.719,69.823 24.832,73.726 25.325,78.331L25.325,78.331C26.268,87.132 36.127,91.88 43.596,87.13L43.596,87.13C47.503,84.644 52.497,84.644 56.404,87.13Z" style="fill:rgb(255,255,255);fill-rule:nonzero;"/>
    </g>
</svg>
