<svg width="21" height="21" viewBox="0 0 21 21" fill="none" xmlns="http://www.w3.org/2000/svg">
<path d="M20.889 13L2.38905 13L-4.55578e-05 10.5L2.38905 8L20.889 8L20.889 13Z" fill="black"/>
<path fill-rule="evenodd" clip-rule="evenodd" d="M2.88904 2.5C2.88904 3.32843 3.56061 4 4.38904 4C5.21747 4 5.88904 3.32843 5.88904 2.5C5.88904 1.67157 5.21747 1 4.38904 1C3.56061 1 2.88904 1.67157 2.88904 2.5ZM4.38904 0C3.00833 0 1.88904 1.11929 1.88904 2.5C1.88904 3.88071 3.00833 5 4.38904 5C5.76975 5 6.88904 3.88071 6.88904 2.5C6.88904 1.11929 5.76975 0 4.38904 0Z" fill="black"/>
<path fill-rule="evenodd" clip-rule="evenodd" d="M2.88904 18.5C2.88904 19.3284 3.56061 20 4.38904 20C5.21747 20 5.88904 19.3284 5.88904 18.5C5.88904 17.6716 5.21747 17 4.38904 17C3.56061 17 2.88904 17.6716 2.88904 18.5ZM4.38904 16C3.00833 16 1.88904 17.1193 1.88904 18.5C1.88904 19.8807 3.00833 21 4.38904 21C5.76975 21 6.88904 19.8807 6.88904 18.5C6.88904 17.1193 5.76975 16 4.38904 16Z" fill="black"/>
<path fill-rule="evenodd" clip-rule="evenodd" d="M9 2V3H21V2H9Z" fill="black"/>
<path d="M9 18H21V19H9V18Z" fill="black"/>
</svg>
