<svg width="19" height="21" viewBox="0 0 19 21" fill="none" xmlns="http://www.w3.org/2000/svg">
<path fill-rule="evenodd" clip-rule="evenodd" d="M4 2.5C4 3.32843 4.67157 4 5.5 4C6.32843 4 7 3.32843 7 2.5C7 1.67157 6.32843 1 5.5 1C4.67157 1 4 1.67157 4 2.5ZM5.5 0C4.11929 0 3 1.11929 3 2.5C3 3.88071 4.11929 5 5.5 5C6.88071 5 8 3.88071 8 2.5C8 1.11929 6.88071 0 5.5 0Z" fill="black"/>
<path fill-rule="evenodd" clip-rule="evenodd" d="M4 18.5C4 19.3284 4.67157 20 5.5 20C6.32843 20 7 19.3284 7 18.5C7 17.6716 6.32843 17 5.5 17C4.67157 17 4 17.6716 4 18.5ZM5.5 16C4.11929 16 3 17.1193 3 18.5C3 19.8807 4.11929 21 5.5 21C6.88071 21 8 19.8807 8 18.5C8 17.1193 6.88071 16 5.5 16Z" fill="black"/>
<path fill-rule="evenodd" clip-rule="evenodd" d="M15 10.5C15 9.67157 14.3284 9 13.5 9C12.6716 9 12 9.67157 12 10.5C12 11.3284 12.6716 12 13.5 12C14.3284 12 15 11.3284 15 10.5ZM13.5 13C14.8807 13 16 11.8807 16 10.5C16 9.11929 14.8807 8 13.5 8C12.1193 8 11 9.11929 11 10.5C11 11.8807 12.1193 13 13.5 13Z" fill="black"/>
<path fill-rule="evenodd" clip-rule="evenodd" d="M8 2V3H19V2H8Z" fill="black"/>
<path fill-rule="evenodd" clip-rule="evenodd" d="M8 18V19H19V18H8Z" fill="black"/>
<path fill-rule="evenodd" clip-rule="evenodd" d="M11 11L11 10L8.74228e-08 10L0 11L11 11Z" fill="black"/>
<path fill-rule="evenodd" clip-rule="evenodd" d="M0 2V3H4V2H0Z" fill="black"/>
<path fill-rule="evenodd" clip-rule="evenodd" d="M0 18V19H4V18H0Z" fill="black"/>
<path fill-rule="evenodd" clip-rule="evenodd" d="M19 11L19 10L15 10L15 11L19 11Z" fill="black"/>
</svg>
