<svg width="36" height="36" viewBox="0 0 36 36" fill="none" xmlns="http://www.w3.org/2000/svg">
<path d="M36 3.85714V32.1429C36 33.2143 35.625 34.125 34.875 34.875C34.125 35.625 33.2143 36 32.1429 36H3.85714C2.78571 36 1.875 35.625 1.125 34.875C0.375 34.125 0 33.2143 0 32.1429V3.85714C0 2.78571 0.375 1.875 1.125 1.125C1.875 0.375 2.78571 0 3.85714 0H32.1429C33.2143 0 34.125 0.375 34.875 1.125C35.625 1.875 36 2.78571 36 3.85714ZM28.9286 5.14286H19.9286C19.0714 5.14286 18.4821 5.54464 18.1607 6.34821C17.8393 7.15179 17.9732 7.84821 18.5625 8.4375L21.1339 11.0089L5.46429 26.6786C4.98214 27.1607 4.98214 27.6161 5.46429 28.0446L7.95536 30.5357C8.38393 31.0179 8.83929 31.0179 9.32143 30.5357L24.9911 14.8661L27.5625 17.4375C28.1518 18.0268 28.8482 18.1607 29.6518 17.8393C30.4554 17.5179 30.8571 16.9286 30.8571 16.0714V7.07143C30.8571 6.53571 30.6696 6.08036 30.2946 5.70536C29.9196 5.33036 29.4643 5.14286 28.9286 5.14286Z" fill="#3D3D3D"/>
</svg>
