<?xml version="1.0" encoding="utf-8"?>
<!-- Generator: Adobe Illustrator 25.0.1, SVG Export Plug-In . SVG Version: 6.00 Build 0)  -->
<svg version="1.1" id="Layer_1" xmlns="http://www.w3.org/2000/svg" xmlns:xlink="http://www.w3.org/1999/xlink" x="0px" y="0px"
	 viewBox="0 0 1366 768" style="enable-background:new 0 0 1366 768;" xml:space="preserve">
<g transform="translate(0,-952.36218)">
	<path d="M1207.9,1336.8c0-11.5-4.9-24.6-13.1-34.4l-262.2-278.6c-18-16.4-52.4-22.9-72.1-3.3c-19.7,18-19.7,54.1,0,72.1l183.6,195
		H208.2c-27.9,0-49.2,21.3-49.2,49.2c0,27.9,21.3,49.2,49.2,49.2h837.5l-183.6,195c-16.4,16.4-19.7,54.1,0,72.1
		c19.7,18,54.1,13.1,72.1-4.9l262.2-278.6C1203,1359.7,1207.9,1349.9,1207.9,1336.8z"/>
</g>
</svg>
