<svg width="186" height="156" viewBox="0 0 186 156" fill="none" xmlns="http://www.w3.org/2000/svg">
<path d="M0 156L67.0161 48.207L118.716 111.056L0 156Z" fill="#E58061"/>
<path d="M103.468 4.1582L112.827 10.9661L123.739 7.11417L120.163 18.1186L127.193 27.3082L115.622 27.3005L109.059 36.827L105.49 25.8225L94.3936 22.5296L103.759 15.7294L103.468 4.1582Z" fill="#E58061"/>
<path d="M169.773 0L174.329 8.88322L184.231 10.1621L177.193 17.238L179.039 27.0555L170.125 22.545L161.364 27.3312L162.896 17.4678L155.636 10.6139L165.492 9.02106L169.773 0Z" fill="#6E93AC"/>
<path d="M181.88 54.5176L181.543 60.1538L186 63.6152L180.54 65.0396L178.617 70.3465L175.577 65.5986L169.933 65.4072L173.517 61.0498L171.947 55.628L177.201 57.6803L181.88 54.5176Z" fill="#E58061"/>
<path d="M140.649 42.5176L143.36 50.589L151.546 52.9324L144.708 58.0096L145.014 66.5176L138.076 61.5859L130.073 64.5035L132.623 56.3785L127.37 49.6701L135.893 49.5859L140.649 42.5176Z" fill="#6E93AC"/>
<path d="M118.719 111.053C121.849 108.5 112.847 92.2821 98.6123 74.8293C84.3778 57.3765 70.3011 45.2976 67.171 47.8504C64.0409 50.4032 73.0427 66.621 87.2772 84.0738C101.512 101.527 115.588 113.605 118.719 111.053Z" fill="#6E93AC"/>
<path d="M97.1431 65.1387L101.424 70.6907L108.431 70.3154L104.472 76.0972L106.999 82.6371L100.268 80.6613L94.8304 85.0876L94.6313 78.0806L88.7422 74.2746L95.3435 71.916L97.1431 65.1387Z" fill="#E58061"/>
</svg>
