<svg width="22" height="25" viewBox="0 0 22 22" fill="none" xmlns="http://www.w3.org/2000/svg">
	<path d="M3.7,6.7c0-2.4,1.9-4.3,4.3-4.3s4.3,1.9,4.3,4.3s-1.9,4.3-4.3,4.3S3.7,9,3.7,6.7z M18.6,9.9h-1.1V8.8
		c0-0.6-0.5-1.1-1.1-1.1c-0.6,0-1.1,0.5-1.1,1.1v1.1h-1.1c-0.6,0-1.1,0.5-1.1,1.1s0.5,1.1,1.1,1.1h1.1v1.1c0,0.6,0.5,1.1,1.1,1.1
		c0.6,0,1.1-0.5,1.1-1.1V12h1.1c0.6,0,1.1-0.5,1.1-1.1S19.2,9.9,18.6,9.9z M15.1,16.4c-2-3.9-6.7-5.5-10.7-3.6
		c-1.5,0.8-2.8,2-3.6,3.6l-0.2,0.4c-0.1,0.1-0.1,0.3-0.1,0.5v3.2c0,0.6,0.5,1.1,1.1,1.1h12.8c0.6,0,1.1-0.5,1.1-1.1v-3.2
		c0-0.2,0-0.3-0.1-0.5L15.1,16.4z"/>
</svg>
