<svg width="22" height="22" viewBox="0 0 22 22" fill="none" xmlns="http://www.w3.org/2000/svg">
<path d="M18.48 9.50348H19.36V20.5195C19.3554 21.1139 18.8654 21.5949 18.26 21.5995H1.1C0.49258 21.5995 0 21.1161 0 20.5195V3.67148C0 3.07511 0.49258 2.59148 1.1 2.59148H12.32V3.45548H1.1C0.97856 3.45548 0.88 3.55225 0.88 3.67148V20.5195C0.88 20.6389 0.97856 20.7355 1.1 20.7355H18.26C18.3817 20.7355 18.48 20.6389 18.48 20.5195V9.50348ZM7.6736 11.1192L7.04 14.1691C6.99138 14.4028 7.14516 14.6311 7.3832 14.6786C7.41202 14.6845 7.44172 14.6875 7.4712 14.6875H7.5592L10.6392 14.074C10.723 14.0555 10.7996 14.0138 10.8592 13.9529L19.9586 5.02775L16.8786 2.00375L7.788 10.9032C7.72948 10.963 7.68988 11.0379 7.6736 11.1192ZM21.5952 1.51148L20.46 0.396923C19.9245 -0.125797 19.0595 -0.125797 18.524 0.396923L17.4942 1.39052L20.5742 4.41452L21.5952 3.45548C22.1276 2.92974 22.1276 2.08043 21.5952 1.55468V1.51148Z" fill="#3D3D3D"/>
</svg>
