<svg width="26" height="25" viewBox="0 0 26 25" fill="none" xmlns="http://www.w3.org/2000/svg">
<path d="M24.2556 22.8385C23.6264 22.8385 23.0025 22.8385 22.3732 22.8385C20.878 22.8385 19.3774 22.8385 17.8822 22.8385C16.0643 22.8385 14.241 22.8385 12.4231 22.8385C10.8472 22.8385 9.27668 22.8385 7.7008 22.8385C6.94244 22.8385 6.16794 22.7955 5.40958 22.8385C5.39883 22.8385 5.38807 22.8385 5.37731 22.8385C5.64623 23.1074 5.91516 23.3764 6.18408 23.6453C6.18408 23.016 6.18408 22.3921 6.18408 21.7628C6.18408 20.2676 6.18408 18.767 6.18408 17.2718C6.18408 15.4539 6.18408 13.6306 6.18408 11.8127C6.18408 10.2368 6.18408 8.66633 6.18408 7.09045C6.18408 6.33209 6.2271 5.55759 6.18408 4.79923C6.18408 4.78847 6.18408 4.77772 6.18408 4.76696C5.91516 5.03588 5.64623 5.3048 5.37731 5.57373C6.00659 5.57373 6.63049 5.57373 7.25977 5.57373C8.75497 5.57373 10.2556 5.57373 11.7508 5.57373C13.5687 5.57373 15.392 5.57373 17.2099 5.57373C18.7858 5.57373 20.3563 5.57373 21.9321 5.57373C22.6905 5.57373 23.465 5.61675 24.2234 5.57373C24.2341 5.57373 24.2449 5.57373 24.2556 5.57373C23.9867 5.3048 23.7178 5.03588 23.4489 4.76696C23.4489 5.39624 23.4489 6.02014 23.4489 6.64941C23.4489 8.14462 23.4489 9.6452 23.4489 11.1404C23.4489 12.9583 23.4489 14.7816 23.4489 16.5995C23.4489 18.1754 23.4489 19.7459 23.4489 21.3218C23.4489 22.0855 23.422 22.8493 23.4489 23.613C23.4489 23.6238 23.4489 23.6345 23.4489 23.6453C23.4489 24.0648 23.82 24.4736 24.2556 24.452C24.6913 24.4305 25.0624 24.0971 25.0624 23.6453C25.0624 23.016 25.0624 22.3921 25.0624 21.7628C25.0624 20.2676 25.0624 18.767 25.0624 17.2718C25.0624 15.4539 25.0624 13.6306 25.0624 11.8127C25.0624 10.2368 25.0624 8.66633 25.0624 7.09045C25.0624 6.32671 25.0893 5.56297 25.0624 4.79923C25.0624 4.78847 25.0624 4.77772 25.0624 4.76696C25.0624 4.33131 24.6913 3.96019 24.2556 3.96019C23.6264 3.96019 23.0025 3.96019 22.3732 3.96019C20.878 3.96019 19.3774 3.96019 17.8822 3.96019C16.0643 3.96019 14.241 3.96019 12.4231 3.96019C10.8472 3.96019 9.27668 3.96019 7.7008 3.96019C6.93706 3.96019 6.17332 3.9333 5.40958 3.96019C5.39883 3.96019 5.38807 3.96019 5.37731 3.96019C4.94166 3.96019 4.57055 4.33131 4.57055 4.76696C4.57055 5.39624 4.57055 6.02014 4.57055 6.64941C4.57055 8.14462 4.57055 9.6452 4.57055 11.1404C4.57055 12.9583 4.57055 14.7816 4.57055 16.5995C4.57055 18.1754 4.57055 19.7459 4.57055 21.3218C4.57055 22.0855 4.54365 22.8493 4.57055 23.613C4.57055 23.6238 4.57055 23.6345 4.57055 23.6453C4.57055 24.0809 4.94166 24.452 5.37731 24.452C6.00659 24.452 6.63049 24.452 7.25977 24.452C8.75497 24.452 10.2556 24.452 11.7508 24.452C13.5687 24.452 15.392 24.452 17.2099 24.452C18.7858 24.452 20.3563 24.452 21.9321 24.452C22.6959 24.452 23.4596 24.4789 24.2234 24.452C24.2341 24.452 24.2449 24.452 24.2556 24.452C24.6751 24.452 25.0839 24.0809 25.0624 23.6453C25.0409 23.2096 24.7074 22.8385 24.2556 22.8385Z" fill="black"/>
<path d="M5.37837 18.8903C4.16822 18.8903 2.95269 18.8903 1.74255 18.8903C2.01147 19.1592 2.28039 19.4281 2.54931 19.697C2.54931 19.0678 2.54931 18.4439 2.54931 17.8146C2.54931 16.3194 2.54931 14.8188 2.54931 13.3236C2.54931 11.5057 2.54931 9.68239 2.54931 7.86447C2.54931 6.28859 2.54931 4.71809 2.54931 3.1422C2.54931 2.38384 2.59234 1.60935 2.54931 0.850989C2.54931 0.840232 2.54931 0.829475 2.54931 0.818718C2.28039 1.08764 2.01147 1.35656 1.74255 1.62548C2.37182 1.62548 2.99572 1.62548 3.625 1.62548C5.1202 1.62548 6.62079 1.62548 8.116 1.62548C9.93391 1.62548 11.7572 1.62548 13.5751 1.62548C15.151 1.62548 16.7215 1.62548 18.2974 1.62548C19.0557 1.62548 19.8302 1.66851 20.5886 1.62548C20.5994 1.62548 20.6101 1.62548 20.6209 1.62548C20.3519 1.35656 20.083 1.08764 19.8141 0.818718C19.8141 2.13644 19.8141 3.44877 19.8141 4.76649C19.8141 5.18601 20.1852 5.59477 20.6209 5.57326C21.0565 5.55174 21.4276 5.21828 21.4276 4.76649C21.4276 3.44877 21.4276 2.13644 21.4276 0.818718C21.4276 0.383064 21.0565 0.0119521 20.6209 0.0119521C19.9916 0.0119521 19.3677 0.0119521 18.7384 0.0119521C17.2432 0.0119521 15.7426 0.0119521 14.2474 0.0119521C12.4295 0.0119521 10.6062 0.0119521 8.7883 0.0119521C7.21242 0.0119521 5.64191 0.0119521 4.06603 0.0119521C3.30229 0.0119521 2.53855 -0.0149401 1.77482 0.0119521C1.76406 0.0119521 1.7533 0.0119521 1.74255 0.0119521C1.30689 0.0119521 0.93578 0.383064 0.93578 0.818718C0.93578 1.448 0.93578 2.07189 0.93578 2.70117C0.93578 4.19638 0.93578 5.69696 0.93578 7.19217C0.93578 9.01008 0.93578 10.8334 0.93578 12.6513C0.93578 14.2272 0.93578 15.7977 0.93578 17.3736C0.93578 18.1373 0.908888 18.901 0.93578 19.6648C0.93578 19.6755 0.93578 19.6863 0.93578 19.697C0.93578 20.1327 1.30689 20.5038 1.74255 20.5038C2.95269 20.5038 4.16822 20.5038 5.37837 20.5038C5.79789 20.5038 6.20665 20.1327 6.18514 19.697C6.16362 19.2614 5.83016 18.8903 5.37837 18.8903Z" fill="black"/>
<path d="M13.9746 11.5C13.9746 13.0705 13.9746 14.641 13.9746 16.2115C13.9746 16.4374 13.9746 16.6633 13.9746 16.8892C13.9746 17.3087 14.3457 17.7174 14.7814 17.6959C15.217 17.6744 15.5881 17.3409 15.5881 16.8892C15.5881 15.3187 15.5881 13.7481 15.5881 12.1776C15.5881 11.9518 15.5881 11.7259 15.5881 11.5C15.5881 11.0804 15.217 10.6717 14.7814 10.6932C14.3457 10.7147 13.9746 11.0482 13.9746 11.5Z" fill="black"/>
<path d="M12.0849 15.0012C13.6554 15.0012 15.2259 15.0012 16.7964 15.0012C17.0223 15.0012 17.2482 15.0012 17.4741 15.0012C17.8936 15.0012 18.3024 14.6301 18.2809 14.1945C18.2594 13.7588 17.9259 13.3877 17.4741 13.3877C15.9036 13.3877 14.3331 13.3877 12.7626 13.3877C12.5367 13.3877 12.3108 13.3877 12.0849 13.3877C11.6654 13.3877 11.2566 13.7588 11.2782 14.1945C11.2997 14.6301 11.6331 15.0012 12.0849 15.0012Z" fill="black"/>
</svg>
