<svg width="95" height="105" viewBox="0 0 95 105" fill="none" xmlns="http://www.w3.org/2000/svg">
<path fill-rule="evenodd" clip-rule="evenodd" d="M85 19.5C85 24.7467 80.7467 29 75.5 29C70.2533 29 66 24.7467 66 19.5C66 14.2533 70.2533 10 75.5 10C80.7467 10 85 14.2533 85 19.5ZM95 19.5C95 30.2696 86.2696 39 75.5 39C70.855 39 66.5893 37.3759 63.2398 34.6646L40.6265 52.4073L63.5081 70.1221C66.8157 67.5391 70.9781 66 75.5 66C86.2696 66 95 74.7304 95 85.5C95 96.2696 86.2696 105 75.5 105C64.7304 105 56 96.2696 56 85.5C56 82.8751 56.5186 80.3713 57.459 78.0856L36.5781 61.9197C33.2559 67.9299 26.8533 72 19.5 72C8.73045 72 0 63.2696 0 52.5C0 41.7304 8.73045 33 19.5 33C26.7944 33 33.1533 37.0051 36.4976 42.9362L57.3295 26.5912C56.4711 24.3934 56 22.0017 56 19.5C56 8.73045 64.7304 0 75.5 0C86.2696 0 95 8.73045 95 19.5ZM85 85.5C85 90.7467 80.7467 95 75.5 95C70.2533 95 66 90.7467 66 85.5C66 80.2533 70.2533 76 75.5 76C80.7467 76 85 80.2533 85 85.5Z" fill="black"/>
</svg>
