<svg width="50" height="50" viewBox="0 0 73 89" fill="none" xmlns="http://www.w3.org/2000/svg">
<path d="M17.2932 67.6099L20.9314 61.3195L36.8307 33.7458L52.7065 61.2959L56.1793 67.3025C66.2906 60.8229 73 49.4482 73 36.5363C73 16.3645 56.6518 -1.42921e-06 36.5 -3.19093e-06C16.3482 -4.95266e-06 4.48209e-06 16.3408 2.71654e-06 36.5363C1.56914e-06 49.661 6.89838 61.154 17.2932 67.6099Z" fill="#E4C361"/>
<path d="M17.2933 67.6099L5.00855 88.8696L36.8073 88.8696L68.606 88.8696L56.1794 67.3025C50.5095 70.9443 43.7529 73.049 36.5001 73.049C29.46 73.0726 22.8687 71.0625 17.2933 67.6099Z" fill="#6E93AC"/>
</svg>
