<?xml version="1.0" encoding="utf-8"?>
<!-- Generator: Adobe Illustrator 25.0.0, SVG Export Plug-In . SVG Version: 6.00 Build 0)  -->
<svg version="1.1" id="Layer_1" xmlns="http://www.w3.org/2000/svg" xmlns:xlink="http://www.w3.org/1999/xlink" x="0px" y="0px"
	 viewBox="0 0 124 278" style="enable-background:new 0 0 124 278;" xml:space="preserve">
<g>
	<path d="M36.4,197.6l-0.8-10.4c-2.4-21.6,4.8-45.2,24.8-69.2c18-21.2,28-36.8,28-54.8c0-20.4-12.8-34-38-34.4
		C36,28.8,20,33.6,10,41.2L0.4,16c13.2-9.6,36-16,57.2-16c46,0,66.8,28.4,66.8,58.8c0,27.2-15.2,46.8-34.4,69.6
		c-17.6,20.8-24,38.4-22.8,58.8l0.4,10.4H36.4z M27.6,253.6c0-14.8,10-25.2,24-25.2c14,0,23.6,10.4,23.6,25.2c0,14-9.2,24.8-24,24.8
		C37.2,278.4,27.6,267.6,27.6,253.6z"/>
</g>
</svg>
