<?xml version="1.0" encoding="utf-8"?>
<!-- Generator: Adobe Illustrator 25.0.0, SVG Export Plug-In . SVG Version: 6.00 Build 0)  -->
<svg version="1.1" id="Layer_1" xmlns="http://www.w3.org/2000/svg" xmlns:xlink="http://www.w3.org/1999/xlink" x="0px" y="0px"
	 viewBox="0 0 320 324" style="enable-background:new 0 0 320 324;" xml:space="preserve">
<path d="M0,0v324h324V0H0z M153.8,269.3c-10.8,0-18.2-8.3-18.2-19.1c0-11.4,7.7-19.4,18.5-19.4c10.8,0,18.2,8,18.2,19.4
	C172.3,261,165.2,269.3,153.8,269.3z M183.7,153.6c-13.6,16-18.5,29.6-17.6,45.4l0.3,8h-24.1l-0.6-8c-1.9-16.7,3.7-34.9,19.1-53.4
	c13.9-16.4,21.6-28.4,21.6-42.3c0-15.7-9.9-26.2-29.3-26.5c-11.1,0-23.5,3.7-31.2,9.6l-7.4-19.4c10.2-7.4,27.8-12.3,44.1-12.3
	c35.5,0,51.5,21.9,51.5,45.4C210.2,120.9,198.5,136,183.7,153.6z"/>
</svg>
