<svg xmlns="http://www.w3.org/2000/svg" viewBox="0 0 1087.85 689.61"><defs><style>.cls-1{fill:#cca633;}.cls-2{fill:#6e93ac;}</style></defs><g id="Layer_3" data-name="Layer 3"><path class="cls-1" d="M543.93,156.56a291.41,291.41,0,0,0-226.75-108c-161.26,0-292,130.73-292,292s130.74,292,292,292a291.44,291.44,0,0,0,226.75-108,291.94,291.94,0,0,1,0-367.94Z"/><path class="cls-2" d="M770.67,48.53a291.39,291.39,0,0,0-226.74,108,292,292,0,0,1,0,367.94,291.42,291.42,0,0,0,226.74,108c161.27,0,292-130.73,292-292S931.94,48.53,770.67,48.53Z"/><path class="cls-1" d="M862.68,340.53l-318.76-184v.07h0a292,292,0,0,1,0,367.94h0v.07Z"/><path class="cls-2" d="M543.92,156.56v-.07l-318.76,184,318.76,184v-.07a292,292,0,0,1,0-367.93Z"/></g></svg>